# xmcd
#
# Track frame offsets:
#       183
#       16845
#       36383
#       50383
#
# Disc length: 912 seconds
#
# Revision: 0
# Processed by: cddbd v1.4PL0 Copyright (c) Steve Scherf et al.
# Submitted via: CD-DA_X-Tractor v0.21
#
DISCID=29038e04
DTITLE=Garth Brooks - The Dance/Friends In Low Place
DYEAR=1900
DGENRE=
TTITLE0=The Dance
TTITLE1=Friends In Low Places
TTITLE2=Victim of the Game
TTITLE3=Kickin' and Screamin'
EXTD=
EXTT0=
EXTT1=
EXTT2=
EXTT3=
PLAYORDER=
